<svg class="child" xmlns="http://www.w3.org/2000/svg" viewBox="0 0 144 110" xml:space="preserve"><filter id="a"><feDropShadow dx="2" dy="2" stdDeviation="40" flood-color="#1E2023" flood-opacity=".5"/></filter><g filter="url(#a)"><path fill="#fff" d="M33.429 75.259a1.74 1.74 0 0 1-.322-.122.716.716 0 0 1-.273-.316 1.035 1.035 0 0 1-.106-.338.596.596 0 0 1 .01-.35c.08-.287.216-.5.518-.81a2.34 2.34 0 0 0 .44-.575 3.893 3.893 0 0 0 .31-.633c.077-.168.194-.568.194-.666 0-.033-.034-.076-.162-.202-.206-.205-.235-.267-.232-.51.002-.187.023-.3.124-.639.135-.46.144-.647.044-.972a3.068 3.068 0 0 0-.395-.669A3.166 3.166 0 0 0 33 68.02a3.528 3.528 0 0 1-.266-.165 6.446 6.446 0 0 0-.74-.422 5.322 5.322 0 0 1-.568-.328 14.337 14.337 0 0 1-.966-.725 6.627 6.627 0 0 1-.58-.616 1.07 1.07 0 0 1-.214-.399c-.031-.102-.034-.136-.026-.326.01-.23.011-.237.198-.804.148-.451.209-.617.39-1.06.126-.311.384-1.14.368-1.182-.005-.015-.056-.047-.113-.074-.126-.06-.14-.086-.108-.2.05-.18.11-.454.14-.638.013-.082.035-.183.048-.226a5.99 5.99 0 0 0 .139-.724 5.87 5.87 0 0 1 .09-.475l.068-.288.06-.265c.03-.134.04-.221.046-.483.008-.296.016-.388.057-.724.023-.194.05-1.126.04-1.386-.015-.346-.032-.445-.083-.483-.157-.118-.503-.443-.566-.533-.022-.031-.033-.032-.182-.023l-.158.006-.009.11a98.98 98.98 0 0 0-.042 2.237c.003.219.018.311.055.342.034.03.129.038.178.018.037-.015.048-.033.063-.101.036-.162.157-.29.274-.29.063 0 .15.053.208.124.071.09.082.191.034.338-.084.256-.227.444-.41.54-.091.047-.106.05-.26.05-.154 0-.17-.002-.268-.051-.253-.125-.436-.42-.48-.773-.009-.081-.01-.405-.001-.913.007-.432.008-.796.001-.808-.009-.018-.018-.01-.037.026-.014.027-.031.05-.038.05-.007 0-.022.02-.032.042-.066.146-.309.42-.55.622-.083.07-.125.116-.138.155-.03.095-.025.383.013.645.02.132.043.3.052.373l.032.219c.008.047.021.317.03.6.007.282.02.555.03.607.008.051.015.216.016.366 0 .15.01.395.023.545.013.15.03.384.04.52.008.137.022.277.03.312.008.035.028.175.046.311.03.23.031.298.022.958-.006.495-.004.758.009.866.01.086.024.25.032.366.008.116.032.326.054.467.034.227.081.6.136 1.076.023.206.007.528-.053 1.004-.025.203-.024.477.002.58.02.08.019.085-.015.121-.037.04-.163.092-.354.147-.123.036-.13.047-.087.13.038.072.128.373.145.484.056.359.075.64.087 1.295.006.378.003.53-.016.7-.027.243-.061 1.27-.043 1.287.019.018.175.057.269.069.212.026.253.113.147.305-.125.227-.165.337-.243.667-.076.323-.106.514-.106.674 0 .144.001.153.041.19.056.052.137.082.522.195.31.092.603.193.704.245.278.143.558.353.715.539.157.185.23.33.24.474.007.095.003.112-.035.17a.319.319 0 0 1-.091.09c-.222.119-.348.162-.656.225a3.26 3.26 0 0 1-.452.064c-.161.015-.172.018-.366.052-.134.024-.681.021-1.059-.006a9.458 9.458 0 0 0-.63-.011l-.406.002-.155-.05c-.209-.067-.299-.113-.386-.196-.151-.145-.173-.257-.159-.819a3.517 3.517 0 0 0-.021-.639c-.03-.249-.044-.304-.192-.794a7.303 7.303 0 0 1-.068-.249 2.375 2.375 0 0 0-.176-.428c-.174-.353-.216-.473-.187-.533.026-.054.135-.11.261-.134.083-.015.095-.024.095-.054 0-.086-.067-.505-.098-.611-.031-.109-.033-.152-.034-.615 0-.477.001-.509.041-.719.058-.306.085-.4.147-.524.086-.17.075-.2-.17-.493a1.732 1.732 0 0 1-.251-.39 5.905 5.905 0 0 1-.18-.39c-.075-.187-.088-.205-.168-.233-.082-.026-.516-.04-.674-.018a1.09 1.09 0 0 0-.41.164.593.593 0 0 0-.072.194c-.07.266-.303.798-.444 1.015a21.9 21.9 0 0 0-.19.308 1.94 1.94 0 0 1-.145.221.235.235 0 0 0-.056.066 5.434 5.434 0 0 1-.25.332c-.152.18-.603.876-.742 1.144-.071.139-.061.16.113.251.081.042.158.087.17.099.032.033.01.09-.072.191a3.87 3.87 0 0 0-.692 1.362c-.026.102-.002.148.146.283.27.245.299.465.1.78a.908.908 0 0 1-.092.131c-.006.002-.011.018-.011.033 0 .015-.027.059-.06.096a2.276 2.276 0 0 0-.13.178c-.222.33-.598.538-1.133.624a4.542 4.542 0 0 0-.255.047c-.125.026-.488.03-.681.006a1.338 1.338 0 0 1-.745-.333c-.083-.078-.173-.303-.173-.435 0-.08.067-.369.115-.494.02-.056.105-.234.187-.395.081-.163.169-.348.193-.413.06-.155.168-.514.268-.882l.08-.295.011-.32c.01-.286.014-.326.045-.384.047-.09.095-.122.243-.168a.824.824 0 0 0 .183-.077c.061-.042.07-.069.163-.473.07-.307.146-.517.294-.814.079-.158.153-.312.165-.34.044-.112.248-.47.372-.653.071-.106.182-.249.246-.319.149-.162.15-.162.206-.339.053-.162.094-.4.094-.544v-.092l-.12-.027a2.16 2.16 0 0 1-.613-.227 21.41 21.41 0 0 0-.38-.192.843.843 0 0 1-.186-.116c-.043-.046-.044-.052-.035-.155.006-.06.031-.188.057-.285.026-.098.079-.31.117-.473.138-.587.17-.707.275-1.052.058-.192.13-.403.16-.467.11-.235.167-.401.3-.872.03-.107.062-.23.07-.273.027-.15.066-.53.1-.973.017-.22.02-.26.03-.327.005-.039.011-.204.012-.366.002-.221-.003-.316-.02-.374-.042-.145-.021-.724.039-1.075.03-.176.22-.896.249-.941.026-.043.125-.48.177-.78.007-.038.024-.119.038-.179a9.706 9.706 0 0 0 .09-.42 4.12 4.12 0 0 0 .054-.359c.032-.39.042-.547.053-.833a5.061 5.061 0 0 1 .039-.537.626.626 0 0 1 .025-.17.191.191 0 0 0 .015-.087c0-.133.151-.69.229-.841.01-.021.02-.05.02-.063 0-.07.286-.681.392-.84a1.24 1.24 0 0 1 .136-.164c.089-.087.098-.125.04-.18-.071-.067-.04-.207.058-.258a.205.205 0 0 1 .124-.018l.075.01-.01-.043a2.15 2.15 0 0 0-.047-.141.744.744 0 0 1-.022-.46c.018-.066.037-.175.042-.24.011-.168.018-.189.06-.208.042-.02.215.024.38.099a.56.56 0 0 0 .134.044c.05 0 .08-.068.073-.168-.003-.046-.03-.044-.067.002-.041.052-.061.05-.121-.018a.723.723 0 0 1-.15-.333 3.062 3.062 0 0 0-.156-.537c-.06-.138-.083-.17-.147-.196-.039-.014-.055-.014-.113.015a.517.517 0 0 1-.078.033c-.032 0-.104-.21-.105-.3 0-.077-.017-.066-.086.06-.064.112-.075.123-.11.104-.057-.032-.234-.492-.301-.783-.133-.571-.11-1.298.055-1.83a3.73 3.73 0 0 1 .367-.812c.066-.101.316-.42.428-.546.062-.07.52-.431.66-.522.17-.11.41-.222.619-.292.223-.074.36-.104.6-.128.1-.009.182-.02.182-.03 0-.023-.177-.304-.275-.436a3.578 3.578 0 0 0-1.37-1.124 3.742 3.742 0 0 0-3.773.318c-.045.034-.088.056-.094.049a.302.302 0 0 1-.033-.068.197.197 0 0 0-.048-.074 1.839 1.839 0 0 1-.162-.222c-.544-.817-1.266-1.38-2.145-1.673a3.524 3.524 0 0 0-1.204-.187 3.57 3.57 0 0 0-1.717.404 3.251 3.251 0 0 1-.291.135c-.006-.006.007-.045.07-.205a11.577 11.577 0 0 1 .452-1.125c-.001-.051.431-.923.657-1.328a15.7 15.7 0 0 1 4.918-5.381 14.505 14.505 0 0 1 6.173-2.368 15.16 15.16 0 0 1 1.71-.125h.17v-.043c0-.024.014-.11.031-.19.09-.434.254-.75.443-.858.134-.078.236-.054.375.087.161.164.296.51.365.937.02.127.01.12.21.137.192.018.71.085.95.126a14.743 14.743 0 0 1 6.94 3.2 17.486 17.486 0 0 1 1.607 1.544 16.244 16.244 0 0 1 3.224 5.433c.004.018-.01.024-.058.024-.036 0-.069.006-.078.02-.014.019-.032.021-.102.007-.313-.064-.97-.096-1.377-.066a5.63 5.63 0 0 0-2.087.538c-.608.292-1.122.692-1.459 1.133-.05.066-.098.124-.106.13a.496.496 0 0 1-.152-.056 4.97 4.97 0 0 0-1.476-.43 6.572 6.572 0 0 0-1.223 0c-.227.03-.439.071-.455.086-.006.006.035.042.092.08.202.138.484.478.62.747.229.456.323.685.435 1.06.118.391.146.51.228.942.062.326.141.597.3 1.022.072.192.143.395.158.452.015.056.063.172.107.256.068.13.092.16.152.198.1.062.216.09.383.09.079 0 .148.005.153.014.015.024-.01.056-.201.25-.142.143-.181.192-.174.215.005.018.05.058.099.092a.513.513 0 0 1 .163.188c.105.176.15.28.177.41a.577.577 0 0 1-.045.422c-.092.186-.367.45-.444.426-.016-.006-.05-.05-.074-.099a.76.76 0 0 0-.054-.097l-.046-.054c-.02-.027-.033-.036-.028-.021.005.015.018.069.028.122.036.18-.031.284-.3.463a.905.905 0 0 0-.152.114c0 .006.048.103.108.212.169.312.296.665.326.909.036.29.064 1.004.064 1.613 0 .339.007.68.015.76l.034.321c.022.225.038.345.06.444.063.3.172 1.301.187 1.73.013.362.02.445.064.817.07.59.095.782.132.981.044.247.083.5.14.92.022.166.058.411.079.544.09.572.09.582.07.674-.045.204-.194.327-.549.457l-.205.075-.078.164a8.63 8.63 0 0 0-.277.67 8.22 8.22 0 0 1-.102.265c-.023.056-.09.224-.147.374a50 50 0 0 1-.17.436c-.036.09-.094.251-.13.358l-.063.195-.006.333a4.58 4.58 0 0 0 .012.49 9.2 9.2 0 0 1 .03.57c.016.464.021.494.137.725.176.35.537.793.929 1.135.05.044.167.162.258.262.179.193.236.297.237.427 0 .08-.103.334-.28.687-.326.648-.459 1.042-.502 1.484-.013.136.02.479.07.718.043.206.207.499.493.879.064.084.171.306.207.427a.564.564 0 0 1-.034.345c-.072.159-.43.49-1.031.957a7.161 7.161 0 0 0-.687.591c-.167.163-.347.33-.399.372-.274.219-.668.382-1.074.445-.107.017-.43.02-.496.006zm-.186-10.437c-.027-.069-.057-.239-.094-.526a6.125 6.125 0 0 0-.064-.412c-.025-.106-.079-.234-.098-.234-.007 0-.028.03-.049.066a1.68 1.68 0 0 1-.11.16c-.13.167-.279.415-.279.465 0 .027.127.126.278.22.054.034.134.09.178.125.115.089.22.161.235.162.007 0 .008-.012.003-.026zm-5.028-10.225c.069-.09.197-.308.3-.506a.706.706 0 0 1 .147-.203c.076-.07.23-.159.276-.16a.11.11 0 0 0 .05-.02c.028-.021.026-.027-.035-.096-.127-.144-.196-.504-.137-.71a.891.891 0 0 1 .23-.346 1.14 1.14 0 0 1 .407-.211l.085-.018.011-.424.019-.68.093-3.386c.048-1.721.08-3.135.074-3.142a1.28 1.28 0 0 0-.215-.047 2.721 2.721 0 0 0-.514-.035c-.345 0-.525.021-.834.1a3.201 3.201 0 0 0-1.518.889c-.123.128-.281.323-.27.332.003.002.05.011.106.023.264.05.904.283 1.169.424.307.163.59.367.806.58.079.078.144.147.144.153 0 .01-.016.012-.034.012a.857.857 0 0 0-.134.018l-.1.017.147.145c.382.374.575.876.553 1.439-.01.23-.032.324-.129.545-.044.1-.079.203-.178.523-.03.095-.051.252-.049.356.004.165.043.248.182.384.132.131.169.188.157.248a4.13 4.13 0 0 1-.19.504c-.037.068-.039.076-.016.108a.183.183 0 0 1 .024.085c0 .04-.013.061-.063.101-.08.064-.09.106-.045.167.04.055.044.132.007.174a.435.435 0 0 1-.114.063c-.17.068-.196.1-.22.275a.581.581 0 0 1-.176.357c-.154.16-.17.164-.7.17a4.873 4.873 0 0 0-.515.02c-.102.027-.196.075-.213.107-.015.027-.005.03.205.036.19.006.234.012.305.043.112.05.136.096.113.226-.025.143-.025.141.069.18.1.04.205.128.29.244.091.123.195.35.224.485.093.448.114.532.13.532a.344.344 0 0 0 .076-.081zm3.064-1.5a7.109 7.109 0 0 0 .054-.436c.063-.576.091-.704.202-.923.067-.13.088-.16.223-.326.123-.152.124-.16.023-.3-.163-.228-.23-.376-.193-.427.016-.02.283-.107.437-.14.043-.01.044-.013.033-.084a1.031 1.031 0 0 0-.148-.361c-.111-.164-.157-.185-.289-.13a.657.657 0 0 1-.243.048c-.135.006-.158.006-.226-.027a.877.877 0 0 1-.187-.15c-.098-.1-.128-.146-.235-.36-.148-.292-.154-.312-.245-.718-.068-.302-.07-.325-.064-.506.008-.216.037-.363.096-.49a.473.473 0 0 0 .035-.321c-.016-.06-.031-.083-.072-.106-.062-.034-.173-.05-.203-.03-.018.012-.03.423-.073 2.333-.028 1.275-.055 2.45-.06 2.61l-.008.29.11.018a.88.88 0 0 1 .229.08c.102.051.135.08.227.19.133.162.4.408.484.444l.062.027.011-.056c.006-.03.015-.097.02-.149zm-.86-7.6a4.29 4.29 0 0 1 .132-.288c.076-.152.08-.165.055-.185a1.668 1.668 0 0 0-.29-.14c-.004.001-.01.226-.016.496l-.01.49.04-.124c.023-.069.063-.18.09-.25zm19.102 62.908c-6.422-.983-12-2.91-18.078-6.353-9.557-5.477-16.046-12.118-21.16-22.057-2.537-4.896-5.07-14.05-5.39-19.482-.666-11.248 1.446-20.426 6.85-29.963C18.227 19.216 27.237 11.6 39.477 7.11c22.637-8.233 48.388.491 61.671 20.864.658 1.238 2.221 4.038 3.402 6.313 1.672 3.48 1.9 3.732 1.186 1.722C97.463 13.225 75.143-1.336 50.862.098 45.672.43 37.754 2.304 32.83 4.455 21.525 9.475 12.942 17.21 6.975 27.85 1.718 37.345-.715 48.504.185 59.451.61 64.695 3.43 74.322 5.814 78.945c7.55 14.468 19.743 24.341 35.146 28.438 3.082.882 9.984 1.89 11.843 1.77.606-.089-.821-.404-3.282-.748zm58.957-13.112q-.88.263-1.506.263-1.77 0-2.285-.98-.516-.991-.516-3.175 0-2.649.02-4.721-.606 0-1.88.06l.04-.828q1.123.06 1.931.06 0-1.102.122-2.921l.89-.06q-.193 2.334-.193 2.981.88 0 3.255-.1l-.06.869q-2.083-.061-3.256-.061-.06 1.77-.06 4.165 0 2.628.566 3.296.576.657 1.627.657.294 0 .607-.05.313-.062.778-.183zm-13.93-4.933q0 2.052 1.233 3.255 1.243 1.203 3.235 1.203.485 0 .91-.081.424-.091 1.041-.293v.728q-.344.212-1 .323-.648.111-1.173.111-2.295 0-3.71-1.374-1.406-1.375-1.406-3.539 0-1.647.678-2.79.687-1.142 1.789-1.81 1.112-.677 2.71-.677 1.04 0 1.677.273l-.172 1.011q-.667-.212-1.122-.313-.444-.101-.92-.101-.97 0-1.87.536-.9.535-1.405 1.445-.495.9-.495 2.093zm-10.706-.06q0 1.96 1.203 3.244 1.213 1.274 3.265 1.274 1.557 0 2.588-.313l-.142.808q-.313.101-.97.192-.657.101-1.395.101-2.68 0-4.034-1.405-1.344-1.415-1.344-3.487 0-1.102.263-2.042.273-.94.808-1.719 1.274-1.658 3.276-1.658 1.8 0 2.79 1.163 1 1.162 1 2.87 0 .557-.04.89zm.06-.719h6.339q0-1.708-.738-2.628-.738-.92-2.184-.92-1.344 0-2.264.91-.91.9-1.152 2.638zm-4.76-6.732q0-.283.181-.455.192-.182.627-.182.313 0 .465.151.151.142.151.385 0 .343-.161.616-.152.273-.576.273-.364 0-.526-.242-.162-.243-.162-.546zm.99 9.189q0 .778.05 2.214.061 1.425.061 1.93 0 1.365-.556 2.275-.546.92-1.557 1.345l-.273-.374q.95-.86 1.223-1.517.273-.657.273-2.456l-.01-3.104q0-2.446-.06-3.993-.061-1.557-.203-2.527l1.133-.273q-.091 1.648-.091 3.862zm-8.28 3.71q-1.83 0-3.063-1.284-1.223-1.294-1.223-3.538 0-2.598 1.375-4.105t3.366-1.506q1.577 0 2.901 1.213 1.325 1.203 1.325 3.67 0 2.557-1.385 4.054-1.375 1.496-3.296 1.496zm.182-9.755q-1.86 0-2.73 1.435-.869 1.425-.869 3.043 0 2.022.991 3.306.99 1.283 2.629 1.283 1.85 0 2.74-1.435.889-1.436.889-3.033 0-1.971-1.011-3.285t-2.639-1.314zm-5.65.647q-.81-.334-1.699-.334-.94 0-1.638.536-.687.536-1.01 1.557 0 4.75.08 6.955h-.99q.1-2.77.1-4.974 0-2.295-.394-4.61l.89-.232q.233 1.203.253 1.637h.121q.627-.89 1.264-1.324.647-.435 1.344-.435.799 0 1.941.334zm-15.73.08h.04q.465-.576 1.365-.95.9-.374 2.092-.374 1.92 0 3.013 1.436 1.102 1.425 1.102 3.346 0 2.355-1.315 3.892-1.304 1.536-3.427 1.536-.98 0-1.678-.192-.687-.192-.99-.455h-.081q0 3.124.06 5.014h-1.091q.06-1.304.07-2.992.01-1.688.01-3.619v-1.88q0-2.123-.05-3.427-.05-1.304-.223-2.305l.95-.212zm6.641 3.58q0-1.942-.95-3.013-.95-1.082-2.608-1.082-1.021 0-1.81.404-.778.394-1.314 1.041 0 .991.05 2.538l.03 2.001q.021 1.254.021 1.982.475.344 1.163.525.697.182 1.486.182 1.86 0 2.89-1.243 1.042-1.253 1.042-3.336zm86.706-19.676q0 .516-.06 1.345l-6.51.11q.14 1.143.98 1.901.839.758 2.203.758 1.517 0 3.225-.454l-.202 1.96q-1.395.506-3.457.506-2.608 0-4.003-1.466-1.385-1.465-1.385-3.528 0-2.153 1.314-3.73 1.324-1.587 3.67-1.587 2.142 0 3.184 1.162t1.04 3.023zm-2.365-.09q0-2.326-1.982-2.326-1.89 0-2.244 2.406zm-7.805-3.68q0 .586-1.81 4.801-1.809 4.216-1.809 4.802h-2.76q0-.647-1.607-4.913-1.607-4.276-1.607-4.69h2.952q0 .454.99 3.517 1.001 3.053 1.001 3.59h.132q0-.486.95-3.398t.95-3.71zm-11.029 9.603h-2.719q.142-2.093.142-4.802 0-2.689-.344-4.71l2.911-.294q-.131 1.961-.131 5.004 0 2.598.141 4.802zm.465-12.657q0 .687-.475 1.203-.465.516-1.304.516-.707 0-1.112-.445-.394-.445-.394-1.072 0-.687.465-1.193.475-.505 1.324-.505.718 0 1.102.445.394.434.394 1.051zm-4.852 10.766-.172 1.8q-.707.303-1.779.303-1.638 0-2.467-.89-.829-.89-.829-3.427 0-1.526.02-3.457-.515 0-1.394.06l.07-1.991q.779.06 1.446.06.01-.535.08-2.82l2.397-.293q-.152 2.012-.152 3.114.85 0 2.537-.081l-.08 2.011q-1.537-.06-2.497-.06-.02 1.344-.02 2.82 0 1.8.363 2.416.364.607 1.284.607.556 0 1.193-.172zm-7.936 1.88-2.385.081q-.162-.424-.162-.768h-.132q-1.112.95-3.002.95-1.264 0-2.103-.697-.829-.708-.829-1.87 0-1.537 1.294-2.518 1.304-.98 4.56-1.04.02-.183.02-.345 0-1.091-.526-1.435-.526-.354-1.93-.354-1.527 0-2.983.404l.223-1.86q1.374-.475 3.881-.475 1.83 0 2.82.768 1.002.769 1.002 2.69 0 .424-.04 1.546-.031 1.122-.031 1.496 0 2.093.323 3.427zm-2.699-2.102q-.06-1.365-.06-2.356-3.448 0-3.448 1.75 0 1.202 1.517 1.202 1.193 0 1.991-.596zm-7.774 2.112h-2.689q.223-2.557.223-5.175 0-1.588-.475-2.154-.465-.566-1.426-.566-1.152 0-2.183.789.05 3.942.05 7.106h-2.72q.183-3.164.183-4.973 0-2.416-.496-4.56l2.588-.282.172 1.071h.162q1.385-1.193 3.184-1.193 1.557 0 2.487.738.94.728.94 2.7 0 .292-.03.788-.02.485-.02 1 0 1.365.05 4.711zm-10.443-9.603-.586 2.365q-.748-.303-1.516-.303-1.486 0-1.962 1.334 0 4.034.061 6.207h-2.689q.172-3.042.172-4.973 0-2.406-.505-4.56l2.577-.283q.172 1.112.172 1.305h.162q.93-1.426 2.477-1.426.728 0 1.637.334zm-8.491 3.77q0 .516-.061 1.345l-6.51.111q.141 1.142.98 1.9.84.759 2.204.759 1.516 0 3.225-.455l-.202 1.961q-1.395.506-3.458.506-2.608 0-4.003-1.466-1.385-1.466-1.385-3.528 0-2.154 1.314-3.73 1.325-1.588 3.67-1.588 2.143 0 3.184 1.163t1.042 3.022zm-2.366-.09q0-2.326-1.981-2.326-1.89 0-2.244 2.406zm-7.935 4.033-.172 1.8q-.708.303-1.78.303-1.637 0-2.466-.89-.83-.89-.83-3.427 0-1.526.021-3.457-.515 0-1.395.06l.07-1.991q.78.06 1.446.06.01-.535.081-2.82l2.396-.293q-.151 2.012-.151 3.114.849 0 2.537-.081l-.08 2.011q-1.538-.06-2.498-.06-.02 1.344-.02 2.82 0 1.8.364 2.416.364.607 1.284.607.556 0 1.192-.172zm-8.311 1.89H59.7q.152-3.467.152-7.51 0-3.943-.314-6.703l2.922-.162q-.152 2.861-.152 6.864 0 4.064.152 7.511zm-4.964-.01-2.386.081q-.161-.424-.161-.768h-.132q-1.112.95-3.002.95-1.264 0-2.103-.697-.829-.708-.829-1.87 0-1.537 1.294-2.518 1.304-.98 4.56-1.041.02-.182.02-.344 0-1.092-.526-1.435-.526-.354-1.931-.354-1.526 0-2.982.404l.222-1.86q1.375-.475 3.882-.475 1.83 0 2.82.768 1.001.769 1.001 2.69 0 .424-.04 1.546-.03 1.122-.03 1.496 0 2.093.323 3.427zm-2.699-2.102q-.06-1.365-.06-2.356-3.448 0-3.448 1.75 0 1.202 1.517 1.202 1.192 0 1.991-.596zm67.721-26.387-.586 2.365q-.748-.303-1.517-.303-1.486 0-1.96 1.334 0 4.034.06 6.207h-2.69q.173-3.043.173-4.974 0-2.406-.506-4.559l2.578-.283q.172 1.112.172 1.304h.162q.93-1.425 2.476-1.425.728 0 1.638.334zm-8.492 3.77q0 .516-.06 1.345l-6.51.111q.14 1.142.98 1.9.839.759 2.204.759 1.516 0 3.224-.455l-.202 1.96q-1.395.506-3.457.506-2.608 0-4.003-1.465-1.385-1.466-1.385-3.529 0-2.153 1.314-3.73 1.324-1.587 3.67-1.587 2.143 0 3.184 1.163 1.041 1.162 1.041 3.022zm-2.365-.09q0-2.326-1.982-2.326-1.89 0-2.244 2.406zm-8.664 5.923h-2.689q.223-2.557.223-4.973 0-1.8-.455-2.356-.455-.566-1.496-.566-1.102 0-2.164.738 0 4.296.101 7.157H93.83q.111-3.133.111-7.51 0-4.034-.313-6.703l2.861-.162q-.152 3.255-.152 5.661h.132q1.334-1.223 3.053-1.223 1.627 0 2.547.738.93.738.93 2.598 0 .192-.03.788-.02.587-.02.779 0 1.688.05 5.034zm-10.655-1.89-.172 1.8q-.707.303-1.779.303-1.637 0-2.466-.89-.83-.89-.83-3.427 0-1.527.02-3.457-.515 0-1.394.06l.07-1.991q.779.06 1.446.06.01-.535.081-2.82l2.396-.293q-.152 2.012-.152 3.113.85 0 2.538-.08l-.081 2.011Q90.483 50 89.523 50q-.02 1.344-.02 2.82 0 1.8.364 2.416.364.607 1.284.607.556 0 1.192-.172zm-7.934 1.88-2.386.081q-.162-.425-.162-.768h-.131q-1.112.95-3.003.95-1.263 0-2.102-.698-.83-.707-.83-1.87 0-1.536 1.295-2.517 1.304-.98 4.559-1.041.02-.182.02-.344 0-1.092-.526-1.435-.525-.354-1.93-.354-1.527 0-2.983.404l.223-1.86q1.375-.475 3.882-.475 1.83 0 2.82.768 1 .769 1 2.69 0 .424-.04 1.546-.03 1.122-.03 1.496 0 2.093.324 3.427zm-2.7-2.103q-.06-1.364-.06-2.355-3.447 0-3.447 1.749 0 1.203 1.516 1.203 1.193 0 1.992-.596zm-7.349-3.72q0 .516-.06 1.345l-6.51.111q.14 1.142.98 1.9.84.759 2.204.759 1.516 0 3.225-.455l-.203 1.96q-1.395.506-3.457.506-2.608 0-4.003-1.465-1.385-1.466-1.385-3.529 0-2.153 1.314-3.73 1.324-1.587 3.67-1.587 2.143 0 3.184 1.163 1.041 1.162 1.041 3.022zm-2.365-.09q0-2.326-1.982-2.326-1.89 0-2.244 2.406zm-7.865-3.68q0 .576-1.688 4.73-1.678 4.155-1.678 4.873h-2.356q0-.465-.829-2.86-1.03-2.993-1.314-4.075h-.162q-.263 1.042-1.253 4.024-.799 2.365-.799 2.911h-2.365q0-.617-1.608-4.913-1.597-4.306-1.597-4.69h2.912q0 .414.88 3.477.889 3.053.889 3.63h.151q0-.698 1.011-3.62 1.011-2.931 1.011-3.487h2.376q0 .384.98 3.487.991 3.104.991 3.62h.142q0-.567.89-3.438.899-2.88.899-3.67z"/></g></svg>